<svg height="512pt" viewBox="0 -66 512.001 512" width="512pt" xmlns="http://www.w3.org/2000/svg"><path d="m472 0h-363.601562c-5.523438 0-10 4.476562-10 10v50h-58.398438c-11.027344 0-20-8.972656-20-20s8.972656-20 20-20c5.523438 0 10-4.476562 10-10s-4.476562-10-10-10c-22.054688 0-40 17.945312-40 40s17.945312 40 40 40h197.441406l-11.921875 70.777344c-1.222656 7.269531.863281 14.535156 5.878907 20.46875 5.8125 6.867187 14.691406 10.972656 23.761718 10.972656 9.066406 0 17.949219-4.105469 23.757813-10.976562 5.015625-5.929688 7.101562-13.195313 5.878906-20.464844l-11.917969-70.777344h199.121094c22.058594 0 40-17.945312 40-40s-17.941406-40-40-40zm-208.351562 158.328125c-1.96875 2.324219-5.378907 3.890625-8.488282 3.890625-3.113281 0-6.523437-1.5625-8.488281-3.886719-1.183594-1.402343-1.664063-2.824219-1.429687-4.230469l9.917968-58.878906 9.914063 58.878906c.238281 1.40625-.242188 2.828126-1.425781 4.226563zm129.953124-138.328125v40h-78.402343v-40zm-275.203124 0h78.402343v40h-78.402343zm146.621093 13.34375c-.808593-4.8125-4.976562-8.339844-9.859375-8.339844-4.882812 0-9.050781 3.527344-9.863281 8.339844l-4.488281 26.65625h-24.007813v-40h78.398438v40h-25.691407zm206.980469 26.65625h-58.398438v-40h58.398438c11.027344 0 20 8.972656 20 20s-8.972656 20-20 20zm0 0"/><path d="m333.835938 182.214844c5.523437 0 10-4.480469 10-10 0-5.523438-4.476563-10-10-10h-.234376c-5.523437 0-10 4.476562-10 10 0 5.519531 4.476563 10 10 10zm0 0"/><path d="m362.566406 182.21875h41.035156c5.523438 0 10-4.480469 10-10 0-5.523438-4.476562-10-10-10h-41.035156c-5.523437 0-10 4.476562-10 10 0 5.519531 4.476563 10 10 10zm0 0"/><path d="m362.566406 152.214844h41.035156c5.523438 0 10-4.476563 10-10 0-5.519532-4.476562-10-10-10h-41.035156c-5.523437 0-10 4.480468-10 10 0 5.523437 4.476563 10 10 10zm0 0"/><path d="m68.730469 20h.269531c5.523438 0 10-4.476562 10-10s-4.476562-10-10-10h-.269531c-5.523438 0-10 4.476562-10 10s4.476562 10 10 10zm0 0"/><path d="m270.535156 289.863281c5.523438 0 10-4.476562 10-10 0-5.519531-4.476562-10-10-10h-32c-5.523437 0-10 4.480469-10 10v58.136719c0 5.523438 4.476563 10 10 10h32c5.523438 0 10-4.476562 10-10s-4.476562-10-10-10h-22v-9.066406h6c5.523438 0 10-4.480469 10-10 0-5.523438-4.476562-10-10-10h-6v-9.066406h22zm0 0"/><path d="m192 269.863281h-14.535156c-5.519532 0-10 4.480469-10 10v58.136719c0 5.523438 4.480468 10 10 10 5.523437 0 10-4.476562 10-10v-19.066406h4.535156c13.527344 0 24.535156-11.007813 24.535156-24.535156 0-13.527344-11.007812-24.535157-24.535156-24.535157zm0 29.070313h-4.535156v-9.070313h4.535156c2.457031 0 4.535156 2.078125 4.535156 4.535157 0 2.457031-2.078125 4.535156-4.535156 4.535156zm0 0"/><path d="m334.535156 289.863281c5.519532 0 10-4.476562 10-10 0-5.519531-4.480468-10-10-10h-32c-5.523437 0-10 4.480469-10 10v58.136719c0 5.523438 4.476563 10 10 10h32c5.519532 0 10-4.476562 10-10s-4.480468-10-10-10h-22v-9.066406h6c5.519532 0 10-4.480469 10-10 0-5.523438-4.480468-10-10-10h-6v-9.066406h22zm0 0"/><path d="m382.535156 269.863281h-16c-5.523437 0-10 4.480469-10 10v58.136719c0 5.523438 4.476563 10 10 10h16c14.335938 0 25.996094-11.664062 25.996094-26v-26.136719c0-14.335937-11.660156-26-25.996094-26zm6 52.136719c0 3.25-2.75 6-6 6h-6v-38.136719h6c3.25 0 6 2.75 6 6zm0 0"/><path d="m128 289.863281h17.46875c5.523438 0 10-4.476562 10-10 0-5.519531-4.476562-10-10-10h-17.46875c-13.527344 0-24.53125 11.007813-24.53125 24.535157 0 13.527343 11.003906 24.535156 24.53125 24.535156.5 0 .988281-.050782 1.46875-.121094.480469.070312.964844.121094 1.464844.121094 2.457031 0 4.535156 2.074218 4.535156 4.53125 0 2.457031-2.078125 4.535156-4.535156 4.535156h-17.464844c-5.523438 0-10 4.476562-10 10 0 5.519531 4.476562 10 10 10h17.464844c13.527344 0 24.535156-11.007812 24.535156-24.535156s-11.007812-24.53125-24.535156-24.53125c-.5 0-.984375.046875-1.464844.117187-.480469-.070312-.96875-.117187-1.46875-.117187-2.457031 0-4.53125-2.078125-4.53125-4.535156 0-2.457032 2.074219-4.535157 4.53125-4.535157zm0 0"/><path d="m414.53125 237.863281h-317.0625c-14.335938 0-26 11.664063-26 26v90.136719c0 14.335938 11.660156 26 26 26h317.0625c14.335938 0 26-11.664062 26-26v-90.136719c0-14.335937-11.660156-26-26-26zm6 116.136719c0 3.25-2.746094 6-6 6h-317.0625c-3.253906 0-6-2.75-6-6v-90.136719c0-3.25 2.746094-6 6-6h317.0625c3.253906 0 6 2.75 6 6zm0 0"/></svg>