<svg height="512pt" viewBox="0 0 512 512" width="512pt" xmlns="http://www.w3.org/2000/svg"><path d="m437.019531 74.980469c-48.351562-48.351563-112.640625-74.980469-181.019531-74.980469-50.71875 0-99.832031 14.875-142.03125 43.011719-4.59375 3.066406-5.835938 9.273437-2.769531 13.867187 3.0625 4.597656 9.273437 5.839844 13.867187 2.773438 38.902344-25.941406 84.175782-39.652344 130.933594-39.652344 130.128906 0 236 105.871094 236 236s-105.871094 236-236 236-236-105.871094-236-236c0-54.261719 18.90625-107.285156 53.230469-149.304688 3.496093-4.277343 2.859375-10.578124-1.417969-14.070312-4.273438-3.492188-10.574219-2.855469-14.070312 1.417969-37.234376 45.582031-57.742188 103.097656-57.742188 161.957031 0 68.378906 26.628906 132.667969 74.980469 181.019531 48.351562 48.351563 112.640625 74.980469 181.019531 74.980469s132.667969-26.628906 181.019531-74.980469c48.351563-48.351562 74.980469-112.640625 74.980469-181.019531s-26.628906-132.667969-74.980469-181.019531zm0 0"/><path d="m414.695312 97.941406c-.101562-.109375-.195312-.226562-.304687-.332031-.074219-.074219-.152344-.140625-.230469-.210937-41.613281-41.476563-98.386718-65.398438-158.160156-65.398438-59.832031 0-116.082031 23.300781-158.390625 65.609375-42.3125 42.304687-65.609375 98.558594-65.609375 158.390625 0 59.828125 23.296875 116.078125 65.601562 158.386719.003907 0 .003907.003906.007813.003906 0 .003906.003906.003906.003906.007813 42.308594 42.304687 98.558594 65.601562 158.386719 65.601562s116.078125-23.296875 158.386719-65.601562c0-.003907.003906-.003907.003906-.007813.003906 0 .003906-.003906.007813-.003906 42.304687-42.308594 65.601562-98.558594 65.601562-158.386719 0-19.570312-2.566406-39.074219-7.632812-57.976562-1.429688-5.332032-6.914063-8.5-12.246094-7.070313-5.335938 1.429687-8.5 6.914063-7.070313 12.25 4.613281 17.210937 6.949219 34.976563 6.949219 52.796875 0 52.652344-20.050781 100.710938-52.917969 136.9375l-28.265625-28.265625c54.796875-61.847656 54.796875-155.496094 0-217.34375l28.320313-28.324219c5.769531 6.359375 11.171875 13.109375 16.152343 20.246094 3.160157 4.527344 9.394532 5.636719 13.925782 2.476562 4.527344-3.160156 5.636718-9.394531 2.476562-13.925781-7.511718-10.757812-15.894531-20.722656-24.996094-29.859375zm-21.710937 6.929688-28.3125 28.3125c-27.84375-24.667969-62.125-38.238282-97.058594-40.695313l-1.675781-15.03125c-.5625-5.0625-4.84375-8.894531-9.9375-8.894531s-9.375 3.832031-9.9375 8.894531l-1.675781 15.03125c-34.929688 2.457031-69.214844 16.027344-97.058594 40.695313l-28.265625-28.265625c36.226562-32.867188 84.285156-52.917969 136.9375-52.917969 51.136719 0 99.851562 19.234375 136.984375 52.871094zm-146.824219 152.238281 9.839844-88.269531 9.839844 88.269531c.25 2.230469-.871094 4.007813-1.851563 5.105469-1.964843 2.199218-5.027343 3.5625-7.988281 3.5625s-6.019531-1.363282-7.988281-3.558594c-.980469-1.101562-2.097657-2.875-1.851563-5.109375zm-141.242187-138.046875 28.265625 28.265625c-54.796875 61.847656-54.796875 155.496094 0 217.34375l-28.261719 28.265625c-32.871094-36.226562-52.921875-84.285156-52.921875-136.9375s20.050781-100.710938 52.917969-136.9375zm287.234375 90.105469-11.554688 3.09375c-5.335937 1.429687-8.5 6.914062-7.070312 12.246093 1.195312 4.46875 5.238281 7.414063 9.652344 7.414063.855468 0 1.730468-.109375 2.59375-.339844l11.53125-3.089843c3.503906 18.15625 3.503906 36.863281 0 55.019531l-11.53125-3.089844c-5.332032-1.433594-10.816407 1.734375-12.246094 7.070313-1.429688 5.335937 1.734375 10.816406 7.070312 12.246093l11.554688 3.097657c-5.859375 17.117187-15.027344 33.339843-27.507813 47.667968l-8.464843-8.464844c-3.90625-3.90625-10.234376-3.90625-14.144532 0-3.90625 3.902344-3.90625 10.234376 0 14.140626l15.785156 15.785156s.003907.003906.003907.003906 0 .003906.003906.003906l35.109375 35.109375c-36.226562 32.867188-84.285156 52.921875-136.9375 52.921875s-100.707031-20.054687-136.9375-52.921875l50.902344-50.902343c3.90625-3.90625 3.90625-10.238282 0-14.144532-3.90625-3.902344-10.234375-3.902344-14.140625 0l-8.46875 8.46875c-12.480469-14.328125-21.648438-30.550781-27.507813-47.667968l11.554688-3.097657c5.332031-1.425781 8.5-6.910156 7.070312-12.246093-1.429687-5.335938-6.914062-8.503907-12.25-7.070313l-11.527344 3.089844c-3.507812-18.15625-3.507812-36.863281 0-55.019531l11.527344 3.089843c.867188.230469 1.738282.339844 2.597656.339844 4.414063 0 8.453126-2.945313 9.652344-7.414063 1.429688-5.332031-1.738281-10.816406-7.070312-12.246093l-11.554688-3.09375c5.859375-17.121094 15.027344-33.34375 27.507813-47.671875l8.46875 8.46875c1.949219 1.953125 4.511719 2.929687 7.070312 2.929687 2.558594 0 5.117188-.976562 7.070313-2.929687 3.90625-3.90625 3.90625-10.238282 0-14.140625l-8.46875-8.46875c14.328125-12.480469 30.550781-21.648438 47.667968-27.507813l3.097657 11.554688c1.195312 4.46875 5.238281 7.414062 9.652343 7.414062.855469 0 1.726563-.109375 2.59375-.34375 5.335938-1.425781 8.5-6.910156 7.070313-12.246094l-3.089844-11.527343c4.519531-.875 9.070313-1.527344 13.640625-1.96875l-15.84375 142.160156c-.835937 7.476563 1.589844 14.8125 6.820313 20.664063 5.730469 6.398437 14.289062 10.222656 22.894531 10.222656s17.164062-3.824219 22.890625-10.226563c5.234375-5.847656 7.65625-13.183593 6.824219-20.65625l-15.84375-142.160156c4.566406.4375 9.121094 1.089844 13.636718 1.964844l-3.089843 11.527343c-1.429688 5.335938 1.738281 10.820313 7.074219 12.25.867187.230469 1.734374.34375 2.59375.34375 4.414062 0 8.457031-2.949218 9.652343-7.417968l3.09375-11.550782c17.121094 5.855469 33.34375 15.027344 47.667969 27.503907l-8.464844 8.46875c-3.90625 3.902343-3.90625 10.234375 0 14.140625 1.953125 1.953125 4.511719 2.929687 7.070313 2.929687 2.558593 0 5.117187-.976562 7.070312-2.929687l8.46875-8.464844c12.480469 14.324219 21.648438 30.546875 27.507813 47.667969zm0 0"/><path d="m290 338.894531h-68c-14.335938 0-26 11.664063-26 26 0 14.335938 11.664062 26 26 26h68c14.335938 0 26-11.664062 26-26 0-14.335937-11.664062-26-26-26zm0 32h-68c-3.25 0-6-2.746093-6-6 0-3.25 2.75-6 6-6h68c3.25 0 6 2.75 6 6 0 3.253907-2.75 6-6 6zm0 0"/><path d="m291 400.894531h-41.035156c-5.519532 0-10 4.476563-10 10 0 5.523438 4.480468 10 10 10h41.035156c5.523438 0 10-4.476562 10-10 0-5.523437-4.476562-10-10-10zm0 0"/><path d="m221.234375 400.894531h-.234375c-5.523438 0-10 4.476563-10 10 0 5.523438 4.476562 10 10 10h.234375c5.523437 0 10-4.476562 10-10 0-5.523437-4.476563-10-10-10zm0 0"/><path d="m85.308594 88.839844c2.503906 0 5.011718-.933594 6.953125-2.796875.023437-.023438.085937-.082031.109375-.105469 3.929687-3.851562 3.992187-10.140625.160156-14.089844-3.832031-3.949218-10.15625-4.039062-14.125-.226562-.023438.023437-.085938.082031-.109375.105468-3.929687 3.851563-3.988281 10.136719-.15625 14.085938 1.953125 2.015625 4.558594 3.027344 7.167969 3.027344zm0 0"/><path d="m437.007812 161.914062.121094.230469c1.78125 3.402344 5.234375 5.332031 8.816406 5.332031 1.570313 0 3.167969-.371093 4.65625-1.148437 4.894532-2.5625 6.765626-8.644531 4.203126-13.539063l-.097657-.191406c-2.574219-4.886718-8.621093-6.765625-13.507812-4.1875-4.886719 2.570313-6.761719 8.617188-4.191407 13.503906zm0 0"/></svg>